<svg id="svg" class="path" title="background" version="1.1" xmlns="http://www.w3.org/2000/svg" style="background-color: rgb(215, 160, 243);"><path fill="#cf9bec" stroke="#cf9bec" d="M -120 1441 L -120 0 C -105.21739130434783 0, -66.78260869565217 54, -52 54 C -33.52173913043478 54, 14.521739130434785 -42, 33 -42 C 47.130434782608695 -42, 83.86956521739131 -70, 98 -70 C 110.3913043478261 -70, 142.6086956521739 67, 155 67 C 171.30434782608694 67, 213.69565217391306 -63, 230 -63 C 240.43478260869566 -63, 267.5652173913044 49, 278 49 C 289.30434782608694 49, 318.69565217391306 44, 330 44 C 342.17391304347825 44, 373.82608695652175 -64, 386 -64 C 399.9130434782609 -64, 436.0869565217391 41, 450 41 C 462.17391304347825 41, 493.82608695652175 68, 506 68 C 518.6086956521739 68, 551.3913043478261 -66, 564 -66 C 579.8695652173913 -66, 621.1304347826087 -46, 637 -46 C 650.4782608695652 -46, 685.5217391304348 -40, 699 -40 C 711.8260869565217 -40, 745.1739130434783 -49, 758 -49 C 774.9565217391304 -49, 819.0434782608696 -48, 836 -48 C 850.7826086956521 -48, 889.2173913043479 -63, 904 -63 C 918.1304347826087 -63, 954.8695652173913 -52, 969 -52 C 981.6086956521739 -52, 1014.3913043478261 -72, 1027 -72 C 1043.0869565217392 -72, 1084.9130434782608 -48, 1101 -48 C 1117.304347826087 -48, 1159.695652173913 53, 1176 53 C 1188.391304347826 53, 1220.608695652174 -54, 1233 -54 C 1247.7826086956522 -54, 1286.2173913043478 48, 1301 48 C 1321.2173913043478 48, 1373.7826086956522 -60, 1394 -60 C 1412.4782608695652 -60, 1460.5217391304348 -46, 1479 -46 C 1490.7391304347825 -46, 1521.2608695652175 -70, 1533 -70 C 1548.8695652173913 -70, 1590.1304347826087 -59, 1606 -59 C 1619.4782608695652 -59, 1654.5217391304348 45, 1668 45 C 1679.7391304347825 45, 1710.2608695652175 -38, 1722 -38 C 1741.5652173913043 -38, 1792.4347826086957 -57, 1812 -57 C 1832 -57, 1884 -55, 1904 -55 C 1918.5652173913043 -55, 1956.4347826086957 -56, 1971 -56 C 1989.4782608695652 -56, 2037.5217391304348 -44, 2056 -44 C 2067.7391304347825 -44, 2098.2608695652175 67, 2110 67 C 2127.1739130434785 67, 2171.8260869565215 -38, 2189 -38 C 2208.3478260869565 -38, 2258.6521739130435 -53, 2278 -53 C 2298 -53, 2350 -47, 2370 -47 C 2388.913043478261 -47, 2438.086956521739 59, 2457 59 C 2467.217391304348 59, 2493.782608695652 -54, 2504 -54 C 2521.1739130434785 -54, 2565.8260869565215 66, 2583 66 L 2680 0 L 2680 1441 Z"></path><path fill="#c796e5" stroke="#c796e5" d="M -120 1441 L -124 44 C -113.34782608695653 44, -85.65217391304347 106, -75 106 C -63.69565217391305 106, -34.30434782608695 90, -23 90 C -11.913043478260871 90, 16.91304347826087 91, 28 91 C 41.69565217391304 91, 77.30434782608695 104, 91 104 C 103.6086956521739 104, 136.3913043478261 -11, 149 -11 C 169 -11, 221 -15, 241 -15 C 255.34782608695653 -15, 292.6521739130435 97, 307 97 C 324.82608695652175 97, 371.17391304347825 -23, 389 -23 C 408.1304347826087 -23, 457.8695652173913 -20, 477 -20 C 493.52173913043475 -20, 536.4782608695652 99, 553 99 C 566.2608695652174 99, 600.7391304347826 -17, 614 -17 C 628.1304347826087 -17, 664.8695652173913 101, 679 101 C 690.304347826087 101, 719.695652173913 -25, 731 -25 C 751 -25, 803 -5, 823 -5 C 838.2173913043479 -5, 877.7826086956521 -27, 893 -27 C 905.3913043478261 -27, 937.6086956521739 113, 950 113 C 962.3913043478261 113, 994.6086956521739 -27, 1007 -27 C 1026.5652173913043 -27, 1077.4347826086957 102, 1097 102 C 1107.6521739130435 102, 1135.3478260869565 90, 1146 90 C 1160.3478260869565 90, 1197.6521739130435 -28, 1212 -28 C 1232.4347826086957 -28, 1285.5652173913043 -5, 1306 -5 C 1319.4782608695652 -5, 1354.5217391304348 84, 1368 84 C 1379.0869565217392 84, 1407.9130434782608 83, 1419 83 C 1434.6521739130435 83, 1475.3478260869565 83, 1491 83 C 1508.8260869565217 83, 1555.1739130434783 -14, 1573 -14 C 1593.4347826086957 -14, 1646.5652173913043 109, 1667 109 C 1681.1304347826087 109, 1717.8695652173913 -16, 1732 -16 C 1752.2173913043478 -16, 1804.7826086956522 94, 1825 94 C 1840.2173913043478 94, 1879.7826086956522 96, 1895 96 C 1914.1304347826087 96, 1963.8695652173913 6, 1983 6 C 1993.4347826086957 6, 2020.5652173913043 113, 2031 113 C 2044.9130434782608 113, 2081.086956521739 91, 2095 91 C 2114.1304347826085 91, 2163.8695652173915 99, 2183 99 C 2196.2608695652175 99, 2230.7391304347825 95, 2244 95 C 2262.478260869565 95, 2310.521739130435 -23, 2329 -23 C 2341.608695652174 -23, 2374.391304347826 108, 2387 108 C 2399.1739130434785 108, 2430.8260869565215 97, 2443 97 C 2457.5652173913045 97, 2495.4347826086955 103, 2510 103 C 2523.2608695652175 103, 2557.7391304347825 101, 2571 101 L 2680 44 L 2680 1441 Z"></path><path fill="#bf90dd" stroke="#bf90dd" d="M -120 1441 L -128 88 C -111.91304347826087 88, -70.08695652173913 153, -54 153 C -33.56521739130435 153, 19.56521739130435 51, 40 51 C 60 51, 112 47, 132 47 C 146.34782608695653 47, 183.65217391304347 41, 198 41 C 209.52173913043478 41, 239.47826086956522 31, 251 31 C 267.0869565217391 31, 308.9130434782609 141, 325 141 C 340.6521739130435 141, 381.3478260869565 24, 397 24 C 412.4347826086956 24, 452.5652173913044 134, 468 134 C 478.8695652173913 134, 507.1304347826087 24, 518 24 C 529.0869565217391 24, 557.9130434782609 141, 569 141 C 584 141, 623 41, 638 41 C 653.8695652173913 41, 695.1304347826087 152, 711 152 C 723.6086956521739 152, 756.3913043478261 32, 769 32 C 788.7826086956521 32, 840.2173913043479 43, 860 43 C 874.3478260869565 43, 911.6521739130435 51, 926 51 C 943.8260869565217 51, 990.1739130434783 20, 1008 20 C 1023.8695652173913 20, 1065.1304347826087 15, 1081 15 C 1098.8260869565217 15, 1145.1739130434783 19, 1163 19 C 1179.0869565217392 19, 1220.9130434782608 142, 1237 142 C 1253.304347826087 142, 1295.695652173913 158, 1312 158 C 1323.5217391304348 158, 1353.4782608695652 41, 1365 41 C 1382.1739130434783 41, 1426.8260869565217 15, 1444 15 C 1463.3478260869565 15, 1513.6521739130435 40, 1533 40 C 1553.2173913043478 40, 1605.7826086956522 127, 1626 127 C 1639.9130434782608 127, 1676.0869565217392 19, 1690 19 C 1707.8260869565217 19, 1754.1739130434783 144, 1772 144 C 1782.8695652173913 144, 1811.1304347826087 28, 1822 28 C 1836.1304347826087 28, 1872.8695652173913 49, 1887 49 C 1901.5652173913043 49, 1939.4347826086957 21, 1954 21 C 1974 21, 2026 17, 2046 17 C 2059.0434782608695 17, 2092.9565217391305 158, 2106 158 C 2122.521739130435 158, 2165.478260869565 146, 2182 146 C 2200.478260869565 146, 2248.521739130435 19, 2267 19 C 2278.086956521739 19, 2306.913043478261 25, 2318 25 C 2338.4347826086955 25, 2391.5652173913045 159, 2412 159 C 2426.782608695652 159, 2465.217391304348 144, 2480 144 C 2493.2608695652175 144, 2527.7391304347825 39, 2541 39 C 2558.1739130434785 39, 2602.8260869565215 127, 2620 127 L 2680 88 L 2680 1441 Z"></path><path fill="#b78bd6" stroke="#b78bd6" d="M -120 1441 L -132 132 C -117.43478260869566 132, -79.56521739130434 194, -65 194 C -49.56521739130435 194, -9.43478260869565 198, 6 198 C 23.391304347826086 198, 68.6086956521739 69, 86 69 C 99.04347826086956 69, 132.95652173913044 70, 146 70 C 156.65217391304347 70, 184.34782608695653 197, 195 197 C 210 197, 249 61, 264 61 C 283.1304347826087 61, 332.8695652173913 67, 352 67 C 369.82608695652175 67, 416.17391304347825 60, 434 60 C 448.7826086956522 60, 487.2173913043478 178, 502 178 C 520.0434782608695 178, 566.9565217391305 202, 585 202 C 603.2608695652174 202, 650.7391304347826 185, 669 185 C 679.8695652173913 185, 708.1304347826087 70, 719 70 C 731.1739130434783 70, 762.8260869565217 90, 775 90 C 795.2173913043479 90, 847.7826086956521 171, 868 171 C 886.9130434782609 171, 936.0869565217391 191, 955 191 C 974.1304347826087 191, 1023.8695652173913 176, 1043 176 C 1057.1304347826087 176, 1093.8695652173913 83, 1108 83 C 1119.5217391304348 83, 1149.4782608695652 203, 1161 203 C 1175.7826086956522 203, 1214.2173913043478 66, 1229 66 C 1239.6521739130435 66, 1267.3478260869565 175, 1278 175 C 1294.7391304347825 175, 1338.2608695652175 203, 1355 203 C 1374.3478260869565 203, 1424.6521739130435 185, 1444 185 C 1463.3478260869565 185, 1513.6521739130435 169, 1533 169 C 1547.7826086956522 169, 1586.2173913043478 72, 1601 72 C 1621.2173913043478 72, 1673.7826086956522 183, 1694 183 C 1709.2173913043478 183, 1748.7826086956522 193, 1764 193 C 1780.5217391304348 193, 1823.4782608695652 178, 1840 178 C 1850.4347826086957 178, 1877.5652173913043 78, 1888 78 C 1905.1739130434783 78, 1949.8260869565217 83, 1967 83 C 1983.0869565217392 83, 2024.9130434782608 198, 2041 198 C 2055.3478260869565 198, 2092.6521739130435 70, 2107 70 C 2122.6521739130435 70, 2163.3478260869565 182, 2179 182 C 2195.086956521739 182, 2236.913043478261 62, 2253 62 C 2271.0434782608695 62, 2317.9565217391305 59, 2336 59 C 2348.608695652174 59, 2381.391304347826 59, 2394 59 C 2414.4347826086955 59, 2467.5652173913045 68, 2488 68 C 2503.4347826086955 68, 2543.5652173913045 66, 2559 66 C 2571.391304347826 66, 2603.608695652174 91, 2616 91 L 2680 132 L 2680 1441 Z"></path><path fill="#af86cf" stroke="#af86cf" d="M -120 1441 L -136 176 C -115.56521739130434 176, -62.43478260869565 129, -42 129 C -23.304347826086957 129, 25.304347826086957 111, 44 111 C 54.869565217391305 111, 83.1304347826087 226, 94 226 C 107.91304347826087 226, 144.08695652173913 107, 158 107 C 172.7826086956522 107, 211.2173913043478 239, 226 239 C 237.30434782608697 239, 266.69565217391306 239, 278 239 C 298.2173913043478 239, 350.7826086956522 132, 371 132 C 384.69565217391306 132, 420.30434782608694 247, 434 247 C 450.0869565217391 247, 491.9130434782609 135, 508 135 C 518.6521739130435 135, 546.3478260869565 116, 557 116 C 577.2173913043479 116, 629.7826086956521 108, 650 108 C 667.6086956521739 108, 713.3913043478261 241, 731 241 C 744.2608695652174 241, 778.7391304347826 112, 792 112 C 803.5217391304348 112, 833.4782608695652 125, 845 125 C 858.2608695652174 125, 892.7391304347826 112, 906 112 C 923.6086956521739 112, 969.3913043478261 107, 987 107 C 1003.9565217391304 107, 1048.0434782608695 122, 1065 122 C 1078.2608695652175 122, 1112.7391304347825 129, 1126 129 C 1141 129, 1180 233, 1195 233 C 1209.3478260869565 233, 1246.6521739130435 217, 1261 217 C 1272.0869565217392 217, 1300.9130434782608 114, 1312 114 C 1325.695652173913 114, 1361.304347826087 221, 1375 221 C 1392.608695652174 221, 1438.391304347826 127, 1456 127 C 1469.9130434782608 127, 1506.0869565217392 246, 1520 246 C 1530.6521739130435 246, 1558.3478260869565 247, 1569 247 C 1588.1304347826087 247, 1637.8695652173913 104, 1657 104 C 1667.2173913043478 104, 1693.7826086956522 103, 1704 103 C 1719.4347826086957 103, 1759.5652173913043 238, 1775 238 C 1785.4347826086957 238, 1812.5652173913043 133, 1823 133 C 1834.5217391304348 133, 1864.4782608695652 244, 1876 244 C 1891.8695652173913 244, 1933.1304347826087 110, 1949 110 C 1960.9565217391305 110, 1992.0434782608695 117, 2004 117 C 2020.304347826087 117, 2062.695652173913 225, 2079 225 C 2097.695652173913 225, 2146.304347826087 239, 2165 239 C 2175.4347826086955 239, 2202.5652173913045 239, 2213 239 C 2226.478260869565 239, 2261.521739130435 109, 2275 109 C 2294.5652173913045 109, 2345.4347826086955 114, 2365 114 C 2378.2608695652175 114, 2412.7391304347825 214, 2426 214 C 2442.7391304347825 214, 2486.2608695652175 214, 2503 214 C 2516.0434782608695 214, 2549.9565217391305 239, 2563 239 L 2680 176 L 2680 1441 Z"></path><path fill="#a781c8" stroke="#a781c8" d="M -120 1441 L -140 220 C -126.73913043478261 220, -92.26086956521739 181, -79 181 C -61.608695652173914 181, -16.391304347826086 173, 1 173 C 15.565217391304346 173, 53.434782608695656 177, 68 177 C 78.8695652173913 177, 107.1304347826087 273, 118 273 C 138.43478260869566 273, 191.56521739130434 162, 212 162 C 229.6086956521739 162, 275.39130434782606 165, 293 165 C 303.2173913043478 165, 329.7826086956522 176, 340 176 C 357.82608695652175 176, 404.17391304347825 179, 422 179 C 435.4782608695652 179, 470.5217391304348 176, 484 176 C 498.3478260869565 176, 535.6521739130435 285, 550 285 C 560.8695652173913 285, 589.1304347826087 175, 600 175 C 619.5652173913044 175, 670.4347826086956 288, 690 288 C 700.8695652173913 288, 729.1304347826087 292, 740 292 C 756.304347826087 292, 798.695652173913 162, 815 162 C 834.5652173913044 162, 885.4347826086956 172, 905 172 C 920 172, 959 182, 974 182 C 986.6086956521739 182, 1019.3913043478261 262, 1032 262 C 1048.5217391304348 262, 1091.4782608695652 159, 1108 159 C 1123.8695652173913 159, 1165.1304347826087 262, 1181 262 C 1198.608695652174 262, 1244.391304347826 270, 1262 270 C 1278.7391304347825 270, 1322.2608695652175 292, 1339 292 C 1358.7826086956522 292, 1410.2173913043478 279, 1430 279 C 1446.0869565217392 279, 1487.9130434782608 159, 1504 159 C 1521.1739130434783 159, 1565.8260869565217 160, 1583 160 C 1601.9130434782608 160, 1651.0869565217392 147, 1670 147 C 1681.7391304347825 147, 1712.2608695652175 260, 1724 260 C 1738.7826086956522 260, 1777.2173913043478 183, 1792 183 C 1809.608695652174 183, 1855.391304347826 277, 1873 277 C 1886.2608695652175 277, 1920.7391304347825 156, 1934 156 C 1953.3478260869565 156, 2003.6521739130435 285, 2023 285 C 2039.9565217391305 285, 2084.0434782608695 163, 2101 163 C 2119.2608695652175 163, 2166.7391304347825 178, 2185 178 C 2205 178, 2257 287, 2277 287 C 2291.5652173913045 287, 2329.4347826086955 155, 2344 155 C 2355.7391304347825 155, 2386.2608695652175 265, 2398 265 C 2414.7391304347825 265, 2458.2608695652175 277, 2475 277 C 2486.521739130435 277, 2516.478260869565 269, 2528 269 C 2541.478260869565 269, 2576.521739130435 263, 2590 263 L 2680 220 L 2680 1441 Z"></path><path fill="#a07cc0" stroke="#a07cc0" d="M -120 1441 L -144 264 C -132.04347826086956 264, -100.95652173913044 212, -89 212 C -76.17391304347827 212, -42.826086956521735 212, -30 212 C -16.30434782608696 212, 19.30434782608696 301, 33 301 C 53.43478260869565 301, 106.56521739130434 313, 127 313 C 138.52173913043478 313, 168.47826086956522 215, 180 215 C 190.65217391304347 215, 218.34782608695653 321, 229 321 C 245.52173913043478 321, 288.47826086956525 307, 305 307 C 324.5652173913044 307, 375.4347826086956 309, 395 309 C 408.9130434782609 309, 445.0869565217391 319, 459 319 C 469.8695652173913 319, 498.1304347826087 304, 509 304 C 521.6086956521739 304, 554.3913043478261 196, 567 196 C 577.4347826086956 196, 604.5652173913044 214, 615 214 C 626.0869565217391 214, 654.9130434782609 316, 666 316 C 678.6086956521739 316, 711.3913043478261 319, 724 319 C 742.2608695652174 319, 789.7391304347826 199, 808 199 C 825.1739130434783 199, 869.8260869565217 192, 887 192 C 903.9565217391304 192, 948.0434782608696 208, 965 208 C 976.5217391304348 208, 1006.4782608695652 313, 1018 313 C 1033.4347826086957 313, 1073.5652173913043 212, 1089 212 C 1102.9130434782608 212, 1139.0869565217392 304, 1153 304 C 1164.0869565217392 304, 1192.9130434782608 202, 1204 202 C 1223.3478260869565 202, 1273.6521739130435 302, 1293 302 C 1305.391304347826 302, 1337.608695652174 322, 1350 322 C 1363.695652173913 322, 1399.304347826087 191, 1413 191 C 1429.9565217391305 191, 1474.0434782608695 316, 1491 316 C 1503.608695652174 316, 1536.391304347826 335, 1549 335 C 1565.7391304347825 335, 1609.2608695652175 318, 1626 318 C 1643.391304347826 318, 1688.608695652174 192, 1706 192 C 1718.8260869565217 192, 1752.1739130434783 226, 1765 226 C 1783.2608695652175 226, 1830.7391304347825 219, 1849 219 C 1863.5652173913043 219, 1901.4347826086957 331, 1916 331 C 1932.304347826087 331, 1974.695652173913 198, 1991 198 C 2006 198, 2045 313, 2060 313 C 2074.3478260869565 313, 2111.6521739130435 302, 2126 302 C 2143.391304347826 302, 2188.608695652174 227, 2206 227 C 2216.8695652173915 227, 2245.1304347826085 321, 2256 321 C 2270.3478260869565 321, 2307.6521739130435 323, 2322 323 C 2332.4347826086955 323, 2359.5652173913045 304, 2370 304 C 2388.0434782608695 304, 2434.9565217391305 334, 2453 334 C 2463.4347826086955 334, 2490.5652173913045 199, 2501 199 C 2512.304347826087 199, 2541.695652173913 191, 2553 191 C 2564.086956521739 191, 2592.913043478261 327, 2604 327 L 2680 264 L 2680 1441 Z"></path><path fill="#9877b9" stroke="#9877b9" d="M -120 1441 L -148 308 C -128.2173913043478 308, -76.78260869565217 248, -57 248 C -45.26086956521739 248, -14.739130434782608 235, -3 235 C 15.043478260869563 235, 61.95652173913044 255, 80 255 C 90.43478260869566 255, 117.56521739130434 362, 128 362 C 141.47826086956522 362, 176.52173913043478 270, 190 270 C 209.34782608695653 270, 259.6521739130435 259, 279 259 C 289.8695652173913 259, 318.1304347826087 349, 329 349 C 348.3478260869565 349, 398.6521739130435 259, 418 259 C 431.04347826086956 259, 464.95652173913044 348, 478 348 C 496.9130434782609 348, 546.0869565217391 354, 565 354 C 579.1304347826087 354, 615.8695652173913 359, 630 359 C 647.8260869565217 359, 694.1739130434783 361, 712 361 C 732.4347826086956 361, 785.5652173913044 372, 806 372 C 822.5217391304348 372, 865.4782608695652 244, 882 244 C 900.0434782608695 244, 946.9565217391305 266, 965 266 C 977.1739130434783 266, 1008.8260869565217 242, 1021 242 C 1039.695652173913 242, 1088.304347826087 380, 1107 380 C 1118.9565217391305 380, 1150.0434782608695 246, 1162 246 C 1172.4347826086957 246, 1199.5652173913043 358, 1210 358 C 1228.2608695652175 358, 1275.7391304347825 370, 1294 370 C 1308.1304347826087 370, 1344.8695652173913 353, 1359 353 C 1369.2173913043478 353, 1395.7826086956522 257, 1406 257 C 1416.8695652173913 257, 1445.1304347826087 375, 1456 375 C 1472.5217391304348 375, 1515.4782608695652 256, 1532 256 C 1549.608695652174 256, 1595.391304347826 375, 1613 375 C 1628.6521739130435 375, 1669.3478260869565 236, 1685 236 C 1701.7391304347825 236, 1745.2608695652175 240, 1762 240 C 1772.6521739130435 240, 1800.3478260869565 239, 1811 239 C 1830.7826086956522 239, 1882.2173913043478 352, 1902 352 C 1915.0434782608695 352, 1948.9565217391305 353, 1962 353 C 1973.7391304347825 353, 2004.2608695652175 351, 2016 351 C 2029.695652173913 351, 2065.304347826087 255, 2079 255 C 2099 255, 2151 361, 2171 361 C 2188.8260869565215 361, 2235.1739130434785 248, 2253 248 C 2271.2608695652175 248, 2318.7391304347825 370, 2337 370 C 2355.2608695652175 370, 2402.7391304347825 252, 2421 252 C 2439.0434782608695 252, 2485.9565217391305 257, 2504 257 C 2521.1739130434785 257, 2565.8260869565215 356, 2583 356 L 2680 308 L 2680 1441 Z"></path><path fill="#9172b2" stroke="#9172b2" d="M -120 1441 L -152 352 C -138.08695652173913 352, -101.91304347826087 395, -88 395 C -71.04347826086956 395, -26.956521739130434 420, -10 420 C 5.869565217391303 420, 47.130434782608695 389, 63 389 C 77.56521739130434 389, 115.43478260869566 291, 130 291 C 142.3913043478261 291, 174.6086956521739 403, 187 403 C 200.47826086956522 403, 235.52173913043478 424, 249 424 C 267.4782608695652 424, 315.5217391304348 394, 334 394 C 344.4347826086956 394, 371.5652173913044 407, 382 407 C 398.0869565217391 407, 439.9130434782609 405, 456 405 C 467.7391304347826 405, 498.2608695652174 421, 510 421 C 526.9565217391304 421, 571.0434782608696 422, 588 422 C 602.3478260869565 422, 639.6521739130435 399, 654 399 C 665.9565217391304 399, 697.0434782608696 312, 709 312 C 721.6086956521739 312, 754.3913043478261 397, 767 397 C 784.8260869565217 397, 831.1739130434783 286, 849 286 C 864.2173913043479 286, 903.7826086956521 416, 919 416 C 931.3913043478261 416, 963.6086956521739 419, 976 419 C 994.2608695652174 419, 1041.7391304347825 279, 1060 279 C 1071.9565217391305 279, 1103.0434782608695 282, 1115 282 C 1125.6521739130435 282, 1153.3478260869565 281, 1164 281 C 1183.7826086956522 281, 1235.2173913043478 423, 1255 423 C 1268.2608695652175 423, 1302.7391304347825 393, 1316 393 C 1336.2173913043478 393, 1388.7826086956522 310, 1409 310 C 1422.0434782608695 310, 1455.9565217391305 282, 1469 282 C 1479.4347826086957 282, 1506.5652173913043 390, 1517 390 C 1534.608695652174 390, 1580.391304347826 399, 1598 399 C 1611.0434782608695 399, 1644.9565217391305 289, 1658 289 C 1671.4782608695652 289, 1706.5217391304348 279, 1720 279 C 1732.608695652174 279, 1765.391304347826 282, 1778 282 C 1790.391304347826 282, 1822.608695652174 398, 1835 398 C 1852.1739130434783 398, 1896.8260869565217 287, 1914 287 C 1924.6521739130435 287, 1952.3478260869565 393, 1963 393 C 1979.7391304347825 393, 2023.2608695652175 414, 2040 414 C 2054.5652173913045 414, 2092.4347826086955 281, 2107 281 C 2123.086956521739 281, 2164.913043478261 413, 2181 413 C 2197.304347826087 413, 2239.695652173913 400, 2256 400 C 2271.4347826086955 400, 2311.5652173913045 419, 2327 419 C 2345.913043478261 419, 2395.086956521739 302, 2414 302 C 2427.695652173913 302, 2463.304347826087 315, 2477 315 C 2489.8260869565215 315, 2523.1739130434785 396, 2536 396 C 2548.8260869565215 396, 2582.1739130434785 289, 2595 289 L 2680 352 L 2680 1441 Z"></path><path fill="#8a6dab" stroke="#8a6dab" d="M -120 1441 L -156 396 C -145.34782608695653 396, -117.65217391304347 468, -107 468 C -94.3913043478261 468, -61.608695652173914 355, -49 355 C -29.869565217391308 355, 19.869565217391308 330, 39 330 C 50.086956521739125 330, 78.91304347826087 439, 90 439 C 105.65217391304347 439, 146.34782608695653 460, 162 460 C 180.26086956521738 460, 227.73913043478262 327, 246 327 C 258.17391304347825 327, 289.82608695652175 338, 302 338 C 313.0869565217391 338, 341.9130434782609 443, 353 443 C 369.30434782608694 443, 411.69565217391306 464, 428 464 C 445.39130434782606 464, 490.60869565217394 345, 508 345 C 527.3478260869565 345, 577.6521739130435 460, 597 460 C 615.0434782608695 460, 661.9565217391305 340, 680 340 C 700 340, 752 441, 772 441 C 785.695652173913 441, 821.304347826087 324, 835 324 C 848.695652173913 324, 884.304347826087 348, 898 348 C 911.2608695652174 348, 945.7391304347826 338, 959 338 C 970.7391304347826 338, 1001.2608695652174 453, 1013 453 C 1032.3478260869565 453, 1082.6521739130435 349, 1102 349 C 1117.8695652173913 349, 1159.1304347826087 456, 1175 456 C 1185.8695652173913 456, 1214.1304347826087 356, 1225 356 C 1236.0869565217392 356, 1264.9130434782608 436, 1276 436 C 1293.391304347826 436, 1338.608695652174 456, 1356 456 C 1372.5217391304348 456, 1415.4782608695652 468, 1432 468 C 1442.6521739130435 468, 1470.3478260869565 439, 1481 439 C 1493.608695652174 439, 1526.391304347826 330, 1539 330 C 1555.0869565217392 330, 1596.9130434782608 341, 1613 341 C 1627.3478260869565 341, 1664.6521739130435 463, 1679 463 C 1692.0434782608695 463, 1725.9565217391305 454, 1739 454 C 1749.8695652173913 454, 1778.1304347826087 330, 1789 330 C 1807.2608695652175 330, 1854.7391304347825 436, 1873 436 C 1889.0869565217392 436, 1930.9130434782608 433, 1947 433 C 1967.2173913043478 433, 2019.7826086956522 457, 2040 457 C 2058.913043478261 457, 2108.086956521739 435, 2127 435 C 2138.086956521739 435, 2166.913043478261 356, 2178 356 C 2190.391304347826 356, 2222.608695652174 332, 2235 332 C 2246.9565217391305 332, 2278.0434782608695 355, 2290 355 C 2308.695652173913 355, 2357.304347826087 465, 2376 465 C 2387.304347826087 465, 2416.695652173913 459, 2428 459 C 2447.3478260869565 459, 2497.6521739130435 443, 2517 443 C 2528.9565217391305 443, 2560.0434782608695 449, 2572 449 L 2680 396 L 2680 1441 Z"></path><path fill="#8368a4" stroke="#8368a4" d="M -120 1441 L -160 440 C -145.65217391304347 440, -108.34782608695652 489, -94 489 C -82.91304347826087 489, -54.086956521739125 368, -43 368 C -28.434782608695656 368, 9.434782608695654 495, 24 495 C 38.130434782608695 495, 74.86956521739131 495, 89 495 C 104 495, 143 505, 158 505 C 171.04347826086956 505, 204.95652173913044 488, 218 488 C 230.6086956521739 488, 263.39130434782606 498, 276 498 C 289.04347826086956 498, 322.95652173913044 486, 336 486 C 355.3478260869565 486, 405.6521739130435 392, 425 392 C 441.7391304347826 392, 485.2608695652174 492, 502 492 C 520.9130434782609 492, 570.0869565217391 388, 589 388 C 604 388, 643 386, 658 386 C 669.304347826087 386, 698.695652173913 481, 710 481 C 720.8695652173913 481, 749.1304347826087 496, 760 496 C 773.9130434782609 496, 810.0869565217391 380, 824 380 C 838.7826086956521 380, 877.2173913043479 398, 892 398 C 910.2608695652174 398, 957.7391304347826 395, 976 395 C 994.2608695652174 395, 1041.7391304347825 384, 1060 384 C 1078.695652173913 384, 1127.304347826087 492, 1146 492 C 1162.304347826087 492, 1204.695652173913 401, 1221 401 C 1234.9130434782608 401, 1271.0869565217392 401, 1285 401 C 1304.1304347826087 401, 1353.8695652173913 501, 1373 501 C 1391.9130434782608 501, 1441.0869565217392 402, 1460 402 C 1473.0434782608695 402, 1506.9565217391305 493, 1520 493 C 1538.695652173913 493, 1587.304347826087 487, 1606 487 C 1621 487, 1660 499, 1675 499 C 1686.9565217391305 499, 1718.0434782608695 399, 1730 399 C 1742.1739130434783 399, 1773.8260869565217 401, 1786 401 C 1797.5217391304348 401, 1827.4782608695652 496, 1839 496 C 1853.1304347826087 496, 1889.8695652173913 399, 1904 399 C 1916.608695652174 399, 1949.391304347826 506, 1962 506 C 1977.6521739130435 506, 2018.3478260869565 371, 2034 371 C 2053.5652173913045 371, 2104.4347826086955 505, 2124 505 C 2144.4347826086955 505, 2197.5652173913045 495, 2218 495 C 2229.086956521739 495, 2257.913043478261 506, 2269 506 C 2285.086956521739 506, 2326.913043478261 384, 2343 384 C 2355.1739130434785 384, 2386.8260869565215 369, 2399 369 C 2411.391304347826 369, 2443.608695652174 402, 2456 402 C 2466.8695652173915 402, 2495.1304347826085 478, 2506 478 C 2520.782608695652 478, 2559.217391304348 382, 2574 382 L 2680 440 L 2680 1441 Z"></path><path fill="#7c639d" stroke="#7c639d" d="M -120 1441 L -164 484 C -151.6086956521739 484, -119.3913043478261 416, -107 416 C -93.73913043478261 416, -59.26086956521739 533, -46 533 C -30.347826086956523 533, 10.347826086956523 437, 26 437 C 37.30434782608695 437, 66.69565217391305 432, 78 432 C 96.26086956521739 432, 143.73913043478262 415, 162 415 C 182 415, 234 523, 254 523 C 272.2608695652174 523, 319.7391304347826 438, 338 438 C 356.2608695652174 438, 403.7391304347826 534, 422 534 C 437.4347826086956 534, 477.5652173913044 417, 493 417 C 511.9130434782609 417, 561.0869565217391 423, 580 423 C 598.695652173913 423, 647.304347826087 432, 666 432 C 678.1739130434783 432, 709.8260869565217 431, 722 431 C 733.5217391304348 431, 763.4782608695652 536, 775 536 C 795.4347826086956 536, 848.5652173913044 432, 869 432 C 888.7826086956521 432, 940.2173913043479 553, 960 553 C 974.7826086956521 553, 1013.2173913043479 435, 1028 435 C 1041.9130434782608 435, 1078.0869565217392 414, 1092 414 C 1107 414, 1146 522, 1161 522 C 1174.2608695652175 522, 1208.7391304347825 436, 1222 436 C 1234.8260869565217 436, 1268.1739130434783 556, 1281 556 C 1294.695652173913 556, 1330.304347826087 446, 1344 446 C 1362.0434782608695 446, 1408.9565217391305 438, 1427 438 C 1439.608695652174 438, 1472.391304347826 415, 1485 415 C 1498.2608695652175 415, 1532.7391304347825 443, 1546 443 C 1560.7826086956522 443, 1599.2173913043478 554, 1614 554 C 1633.7826086956522 554, 1685.2173913043478 522, 1705 522 C 1721.9565217391305 522, 1766.0434782608695 522, 1783 522 C 1794.5217391304348 522, 1824.4782608695652 415, 1836 415 C 1851.8695652173913 415, 1893.1304347826087 411, 1909 411 C 1927.9130434782608 411, 1977.0869565217392 433, 1996 433 C 2010.7826086956522 433, 2049.217391304348 428, 2064 428 C 2081.8260869565215 428, 2128.1739130434785 534, 2146 534 C 2156.217391304348 534, 2182.782608695652 548, 2193 548 C 2209.9565217391305 548, 2254.0434782608695 436, 2271 436 C 2283.608695652174 436, 2316.391304347826 412, 2329 412 C 2341.1739130434785 412, 2372.8260869565215 524, 2385 524 C 2403.695652173913 524, 2452.304347826087 416, 2471 416 C 2483.1739130434785 416, 2514.8260869565215 427, 2527 427 C 2545.0434782608695 427, 2591.9565217391305 543, 2610 543 L 2680 484 L 2680 1441 Z"></path><path fill="#755e96" stroke="#755e96" d="M -120 1441 L -168 528 C -149.52173913043478 528, -101.47826086956522 590, -83 590 C -70.82608695652173 590, -39.17391304347826 594, -27 594 C -9.608695652173914 594, 35.608695652173914 567, 53 567 C 71.91304347826087 567, 121.08695652173913 485, 140 485 C 152.6086956521739 485, 185.3913043478261 596, 198 596 C 218.43478260869566 596, 271.5652173913044 468, 292 468 C 303.95652173913044 468, 335.04347826086956 473, 347 473 C 364.60869565217394 473, 410.39130434782606 472, 428 472 C 438.4347826086956 472, 465.5652173913044 584, 476 584 C 494.04347826086956 584, 540.9565217391305 461, 559 461 C 577.2608695652174 461, 624.7391304347826 596, 643 596 C 659.304347826087 596, 701.695652173913 460, 718 460 C 732.1304347826087 460, 768.8695652173913 576, 783 576 C 794.5217391304348 576, 824.4782608695652 456, 836 456 C 854.4782608695652 456, 902.5217391304348 459, 921 459 C 939.0434782608695 459, 985.9565217391305 469, 1004 469 C 1024 469, 1076 586, 1096 586 C 1108.608695652174 586, 1141.391304347826 474, 1154 474 C 1170.9565217391305 474, 1215.0434782608695 573, 1232 573 C 1248.304347826087 573, 1290.695652173913 579, 1307 579 C 1324.1739130434783 579, 1368.8260869565217 476, 1386 476 C 1400.5652173913043 476, 1438.4347826086957 579, 1453 579 C 1472.5652173913043 579, 1523.4347826086957 598, 1543 598 C 1553.6521739130435 598, 1581.3478260869565 486, 1592 486 C 1602.8695652173913 486, 1631.1304347826087 459, 1642 459 C 1653.5217391304348 459, 1683.4782608695652 464, 1695 464 C 1711.5217391304348 464, 1754.4782608695652 465, 1771 465 C 1781.4347826086957 465, 1808.5652173913043 601, 1819 601 C 1831.608695652174 601, 1864.391304347826 599, 1877 599 C 1893.7391304347825 599, 1937.2608695652175 491, 1954 491 C 1972.0434782608695 491, 2018.9565217391305 469, 2037 469 C 2050.2608695652175 469, 2084.7391304347825 482, 2098 482 C 2117.5652173913045 482, 2168.4347826086955 470, 2188 470 C 2208.4347826086955 470, 2261.5652173913045 597, 2282 597 C 2295.695652173913 597, 2331.304347826087 590, 2345 590 C 2358.0434782608695 590, 2391.9565217391305 464, 2405 464 C 2416.9565217391305 464, 2448.0434782608695 491, 2460 491 C 2477.1739130434785 491, 2521.8260869565215 582, 2539 582 C 2555.304347826087 582, 2597.695652173913 568, 2614 568 L 2680 528 L 2680 1441 Z"></path><path fill="#6e598f" stroke="#6e598f" d="M -120 1441 L -172 572 C -156.34782608695653 572, -115.65217391304347 645, -100 645 C -81.08695652173913 645, -31.913043478260867 618, -13 618 C 3.5217391304347814 618, 46.47826086956522 635, 63 635 C 77.34782608695652 635, 114.65217391304348 639, 129 639 C 147.91304347826087 639, 197.08695652173913 500, 216 500 C 233.17391304347825 500, 277.82608695652175 617, 295 617 C 308.4782608695652 617, 343.5217391304348 641, 357 641 C 375.69565217391306 641, 424.30434782608694 511, 443 511 C 457.1304347826087 511, 493.8695652173913 514, 508 514 C 523.6521739130435 514, 564.3478260869565 525, 580 525 C 600.4347826086956 525, 653.5652173913044 619, 674 619 C 690.0869565217391 619, 731.9130434782609 531, 748 531 C 767.1304347826087 531, 816.8695652173913 619, 836 619 C 856.4347826086956 619, 909.5652173913044 528, 930 528 C 949.5652173913044 528, 1000.4347826086956 502, 1020 502 C 1033.4782608695652 502, 1068.5217391304348 644, 1082 644 C 1100.2608695652175 644, 1147.7391304347825 616, 1166 616 C 1177.0869565217392 616, 1205.9130434782608 528, 1217 528 C 1235.4782608695652 528, 1283.5217391304348 524, 1302 524 C 1322.2173913043478 524, 1374.7826086956522 645, 1395 645 C 1409.3478260869565 645, 1446.6521739130435 632, 1461 632 C 1478.391304347826 632, 1523.608695652174 628, 1541 628 C 1553.1739130434783 628, 1584.8260869565217 503, 1597 503 C 1612 503, 1651 507, 1666 507 C 1684.9130434782608 507, 1734.0869565217392 501, 1753 501 C 1767.3478260869565 501, 1804.6521739130435 614, 1819 614 C 1838.1304347826087 614, 1887.8695652173913 507, 1907 507 C 1921.7826086956522 507, 1960.2173913043478 501, 1975 501 C 1992.8260869565217 501, 2039.1739130434783 637, 2057 637 C 2075.913043478261 637, 2125.086956521739 518, 2144 518 C 2163.3478260869565 518, 2213.6521739130435 635, 2233 635 C 2250.391304347826 635, 2295.608695652174 507, 2313 507 C 2325.391304347826 507, 2357.608695652174 525, 2370 525 C 2386.086956521739 525, 2427.913043478261 623, 2444 623 C 2463.3478260869565 623, 2513.6521739130435 529, 2533 529 C 2549.304347826087 529, 2591.695652173913 523, 2608 523 L 2680 572 L 2680 1441 Z"></path><path fill="#675488" stroke="#675488" d="M -120 1441 L -176 616 C -163.82608695652175 616, -132.17391304347825 677, -120 677 C -105.65217391304348 677, -68.34782608695652 689, -54 689 C -35.73913043478261 689, 11.73913043478261 672, 30 672 C 47.391304347826086 672, 92.6086956521739 657, 110 657 C 126.95652173913044 657, 171.04347826086956 571, 188 571 C 200.17391304347825 571, 231.82608695652175 680, 244 680 C 264.2173913043478 680, 316.7826086956522 653, 337 653 C 348.0869565217391 653, 376.9130434782609 578, 388 578 C 403.4347826086956 578, 443.5652173913044 568, 459 568 C 471.17391304347825 568, 502.82608695652175 549, 515 549 C 528.4782608695652 549, 563.5217391304348 673, 577 673 C 597.4347826086956 673, 650.5652173913044 658, 671 658 C 684.2608695652174 658, 718.7391304347826 579, 732 579 C 744.3913043478261 579, 776.6086956521739 545, 789 545 C 799.4347826086956 545, 826.5652173913044 665, 837 665 C 853.304347826087 665, 895.695652173913 662, 912 662 C 926.5652173913044 662, 964.4347826086956 670, 979 670 C 997.0434782608695 670, 1043.9565217391305 685, 1062 685 C 1080.9130434782608 685, 1130.0869565217392 677, 1149 677 C 1160.304347826087 677, 1189.695652173913 675, 1201 675 C 1217.5217391304348 675, 1260.4782608695652 680, 1277 680 C 1293.0869565217392 680, 1334.9130434782608 657, 1351 657 C 1362.0869565217392 657, 1390.9130434782608 680, 1402 680 C 1414.8260869565217 680, 1448.1739130434783 671, 1461 671 C 1472.7391304347825 671, 1503.2608695652175 660, 1515 660 C 1528.4782608695652 660, 1563.5217391304348 664, 1577 664 C 1596.7826086956522 664, 1648.2173913043478 577, 1668 577 C 1686.0434782608695 577, 1732.9565217391305 684, 1751 684 C 1770.5652173913043 684, 1821.4347826086957 656, 1841 656 C 1855.5652173913043 656, 1893.4347826086957 545, 1908 545 C 1928.2173913043478 545, 1980.7826086956522 569, 2001 569 C 2017.9565217391305 569, 2062.0434782608695 673, 2079 673 C 2089.8695652173915 673, 2118.1304347826085 548, 2129 548 C 2148.3478260869565 548, 2198.6521739130435 663, 2218 663 C 2229.9565217391305 663, 2261.0434782608695 658, 2273 658 C 2292.1304347826085 658, 2341.8695652173915 561, 2361 561 C 2372.7391304347825 561, 2403.2608695652175 655, 2415 655 C 2433.695652173913 655, 2482.304347826087 558, 2501 558 C 2521.217391304348 558, 2573.782608695652 676, 2594 676 L 2680 616 L 2680 1441 Z"></path><path fill="#604f81" stroke="#604f81" d="M -120 1441 L -180 660 C -162.82608695652175 660, -118.17391304347825 612, -101 612 C -85.1304347826087 612, -43.869565217391305 701, -28 701 C -10.39130434782609 701, 35.39130434782609 714, 53 714 C 70.6086956521739 714, 116.3913043478261 712, 134 712 C 154.2173913043478 712, 206.7826086956522 718, 227 718 C 239.6086956521739 718, 272.39130434782606 722, 285 722 C 297.82608695652175 722, 331.17391304347825 707, 344 707 C 354.8695652173913 707, 383.1304347826087 720, 394 720 C 411.17391304347825 720, 455.82608695652175 590, 473 590 C 485.17391304347825 590, 516.8260869565217 730, 529 730 C 542.2608695652174 730, 576.7391304347826 728, 590 728 C 607.8260869565217 728, 654.1739130434783 592, 672 592 C 690.695652173913 592, 739.304347826087 589, 758 589 C 778 589, 830 593, 850 593 C 869.5652173913044 593, 920.4347826086956 592, 940 592 C 959.1304347826087 592, 1008.8695652173913 602, 1028 602 C 1043.8695652173913 602, 1085.1304347826087 587, 1101 587 C 1118.8260869565217 587, 1165.1739130434783 593, 1183 593 C 1198.8695652173913 593, 1240.1304347826087 597, 1256 597 C 1272.0869565217392 597, 1313.9130434782608 721, 1330 721 C 1340.8695652173913 721, 1369.1304347826087 729, 1380 729 C 1396.7391304347825 729, 1440.2608695652175 726, 1457 726 C 1469.391304347826 726, 1501.608695652174 699, 1514 699 C 1531.1739130434783 699, 1575.8260869565217 612, 1593 612 C 1612.5652173913043 612, 1663.4347826086957 612, 1683 612 C 1695.391304347826 612, 1727.608695652174 713, 1740 713 C 1757.1739130434783 713, 1801.8260869565217 595, 1819 595 C 1837.9130434782608 595, 1887.0869565217392 730, 1906 730 C 1917.7391304347825 730, 1948.2608695652175 604, 1960 604 C 1979.5652173913043 604, 2030.4347826086957 725, 2050 725 C 2065.4347826086955 725, 2105.5652173913045 592, 2121 592 C 2141 592, 2193 622, 2213 622 C 2224.9565217391305 622, 2256.0434782608695 713, 2268 713 C 2284.304347826087 713, 2326.695652173913 621, 2343 621 C 2361.478260869565 621, 2409.521739130435 712, 2428 712 C 2446.2608695652175 712, 2493.7391304347825 704, 2512 704 C 2530.695652173913 704, 2579.304347826087 606, 2598 606 L 2680 660 L 2680 1441 Z"></path><path fill="#5a4a7a" stroke="#5a4a7a" d="M -120 1441 L -184 704 C -164.43478260869566 704, -113.56521739130434 665, -94 665 C -76.17391304347827 665, -29.82608695652174 760, -12 760 C 5.391304347826086 760, 50.608695652173914 741, 68 741 C 87.13043478260869 741, 136.8695652173913 646, 156 646 C 174.26086956521738 646, 221.73913043478262 634, 240 634 C 250.65217391304347 634, 278.3478260869565 631, 289 631 C 301.17391304347825 631, 332.82608695652175 758, 345 758 C 363.69565217391306 758, 412.30434782608694 767, 431 767 C 446.2173913043478 767, 485.7826086956522 665, 501 665 C 512.304347826087 665, 541.695652173913 642, 553 642 C 570.1739130434783 642, 614.8260869565217 660, 632 660 C 642.4347826086956 660, 669.5652173913044 650, 680 650 C 694.7826086956521 650, 733.2173913043479 761, 748 761 C 761.695652173913 761, 797.304347826087 769, 811 769 C 826.4347826086956 769, 866.5652173913044 747, 882 747 C 896.3478260869565 747, 933.6521739130435 760, 948 760 C 964.304347826087 760, 1006.695652173913 634, 1023 634 C 1036.4782608695652 634, 1071.5217391304348 741, 1085 741 C 1099.3478260869565 741, 1136.6521739130435 654, 1151 654 C 1169.0434782608695 654, 1215.9565217391305 645, 1234 645 C 1245.5217391304348 645, 1275.4782608695652 761, 1287 761 C 1302 761, 1341 762, 1356 762 C 1369.2608695652175 762, 1403.7391304347825 758, 1417 758 C 1436.3478260869565 758, 1486.6521739130435 636, 1506 636 C 1520.1304347826087 636, 1556.8695652173913 765, 1571 765 C 1591 765, 1643 741, 1663 741 C 1680.608695652174 741, 1726.391304347826 649, 1744 649 C 1755.9565217391305 649, 1787.0434782608695 777, 1799 777 C 1815.7391304347825 777, 1859.2608695652175 632, 1876 632 C 1894.2608695652175 632, 1941.7391304347825 741, 1960 741 C 1978.4782608695652 741, 2026.5217391304348 776, 2045 776 C 2059.1304347826085 776, 2095.8695652173915 756, 2110 756 C 2129.782608695652 756, 2181.217391304348 752, 2201 752 C 2218.8260869565215 752, 2265.1739130434785 631, 2283 631 C 2294.304347826087 631, 2323.695652173913 665, 2335 665 C 2351.7391304347825 665, 2395.2608695652175 649, 2412 649 C 2428.521739130435 649, 2471.478260869565 654, 2488 654 C 2507.782608695652 654, 2559.217391304348 754, 2579 754 L 2680 704 L 2680 1441 Z"></path><path fill="#544673" stroke="#544673" d="M -120 1441 L -188 748 C -167.56521739130434 748, -114.43478260869566 695, -94 695 C -82.47826086956522 695, -52.52173913043478 794, -41 794 C -22.304347826086957 794, 26.304347826086957 676, 45 676 C 58.04347826086956 676, 91.95652173913044 711, 105 711 C 116.08695652173913 711, 144.91304347826087 686, 156 686 C 170.7826086956522 686, 209.2173913043478 785, 224 785 C 241.17391304347825 785, 285.82608695652175 790, 303 790 C 320.17391304347825 790, 364.82608695652175 696, 382 696 C 396.5652173913044 696, 434.4347826086956 680, 449 680 C 460.0869565217391 680, 488.9130434782609 700, 500 700 C 519.5652173913044 700, 570.4347826086956 786, 590 786 C 601.7391304347826 786, 632.2608695652174 702, 644 702 C 663.1304347826087 702, 712.8695652173913 792, 732 792 C 748.5217391304348 792, 791.4782608695652 677, 808 677 C 827.7826086956521 677, 879.2173913043479 812, 899 812 C 912.2608695652174 812, 946.7391304347826 710, 960 710 C 977.1739130434783 710, 1021.8260869565217 821, 1039 821 C 1049.8695652173913 821, 1078.1304347826087 704, 1089 704 C 1107.4782608695652 704, 1155.5217391304348 707, 1174 707 C 1188.7826086956522 707, 1227.2173913043478 703, 1242 703 C 1258.0869565217392 703, 1299.9130434782608 709, 1316 709 C 1327.5217391304348 709, 1357.4782608695652 786, 1369 786 C 1383.7826086956522 786, 1422.2173913043478 795, 1437 795 C 1448.304347826087 795, 1477.695652173913 798, 1489 798 C 1502.695652173913 798, 1538.304347826087 814, 1552 814 C 1567.4347826086957 814, 1607.5652173913043 687, 1623 687 C 1639.7391304347825 687, 1683.2608695652175 677, 1700 677 C 1718.4782608695652 677, 1766.5217391304348 684, 1785 684 C 1804.3478260869565 684, 1854.6521739130435 704, 1874 704 C 1893.3478260869565 704, 1943.6521739130435 693, 1963 693 C 1973.4347826086957 693, 2000.5652173913043 813, 2011 813 C 2031.2173913043478 813, 2083.782608695652 806, 2104 806 C 2124.217391304348 806, 2176.782608695652 807, 2197 807 C 2212.4347826086955 807, 2252.5652173913045 690, 2268 690 C 2281.0434782608695 690, 2314.9565217391305 786, 2328 786 C 2338.8695652173915 786, 2367.1304347826085 816, 2378 816 C 2392.782608695652 816, 2431.217391304348 802, 2446 802 C 2464.2608695652175 802, 2511.7391304347825 794, 2530 794 C 2540.6521739130435 794, 2568.3478260869565 796, 2579 796 L 2680 748 L 2680 1441 Z"></path><path fill="#4d416c" stroke="#4d416c" d="M -120 1441 L -192 792 C -177 792, -138 863, -123 863 C -110.6086956521739 863, -78.3913043478261 860, -66 860 C -49.47826086956522 860, -6.521739130434781 860, 10 860 C 24.565217391304344 860, 62.434782608695656 833, 77 833 C 95.69565217391305 833, 144.30434782608697 857, 163 857 C 181.69565217391303 857, 230.30434782608697 838, 249 838 C 267.9130434782609 838, 317.0869565217391 724, 336 724 C 350.5652173913044 724, 388.4347826086956 719, 403 719 C 416.2608695652174 719, 450.7391304347826 744, 464 744 C 481.60869565217394 744, 527.3913043478261 844, 545 844 C 561.5217391304348 844, 604.4782608695652 754, 621 754 C 639.0434782608695 754, 685.9565217391305 834, 704 834 C 724.4347826086956 834, 777.5652173913044 733, 798 733 C 817.3478260869565 733, 867.6521739130435 731, 887 731 C 901.3478260869565 731, 938.6521739130435 733, 953 733 C 967.1304347826087 733, 1003.8695652173913 720, 1018 720 C 1038 720, 1090 830, 1110 830 C 1125.2173913043478 830, 1164.7826086956522 738, 1180 738 C 1200.2173913043478 738, 1252.7826086956522 743, 1273 743 C 1293 743, 1345 830, 1365 830 C 1385.4347826086957 830, 1438.5652173913043 720, 1459 720 C 1475.0869565217392 720, 1516.9130434782608 829, 1533 829 C 1547.3478260869565 829, 1584.6521739130435 741, 1599 741 C 1619 741, 1671 724, 1691 724 C 1709.4782608695652 724, 1757.5217391304348 743, 1776 743 C 1787.5217391304348 743, 1817.4782608695652 829, 1829 829 C 1841.8260869565217 829, 1875.1739130434783 739, 1888 739 C 1903.2173913043478 739, 1942.7826086956522 850, 1958 850 C 1976.4782608695652 850, 2024.5217391304348 721, 2043 721 C 2054.7391304347825 721, 2085.2608695652175 749, 2097 749 C 2113.086956521739 749, 2154.913043478261 846, 2171 846 C 2189.695652173913 846, 2238.304347826087 730, 2257 730 C 2271.5652173913045 730, 2309.4347826086955 719, 2324 719 C 2343.5652173913045 719, 2394.4347826086955 850, 2414 850 C 2433.782608695652 850, 2485.217391304348 835, 2505 835 C 2518.0434782608695 835, 2551.9565217391305 857, 2565 857 L 2680 792 L 2680 1441 Z"></path><path fill="#473c65" stroke="#473c65" d="M -120 1441 L -196 836 C -181.43478260869566 836, -143.56521739130434 901, -129 901 C -115.08695652173913 901, -78.91304347826087 792, -65 792 C -45.652173913043484 792, 4.65217391304348 898, 24 898 C 34.65217391304348 898, 62.34782608695652 792, 73 792 C 89.30434782608695 792, 131.69565217391306 771, 148 771 C 162.34782608695653 771, 199.65217391304347 889, 214 889 C 224.43478260869566 889, 251.56521739130434 772, 262 772 C 278.30434782608694 772, 320.69565217391306 797, 337 797 C 352.8695652173913 797, 394.1304347826087 903, 410 903 C 424.1304347826087 903, 460.8695652173913 767, 475 767 C 485.8695652173913 767, 514.1304347826087 905, 525 905 C 541.9565217391304 905, 586.0434782608696 904, 603 904 C 617.3478260869565 904, 654.6521739130435 891, 669 891 C 685.7391304347826 891, 729.2608695652174 772, 746 772 C 760.3478260869565 772, 797.6521739130435 879, 812 879 C 825.2608695652174 879, 859.7391304347826 892, 873 892 C 884.0869565217391 892, 912.9130434782609 767, 924 767 C 942.0434782608695 767, 988.9565217391305 776, 1007 776 C 1021.5652173913044 776, 1059.4347826086957 780, 1074 780 C 1091.608695652174 780, 1137.391304347826 794, 1155 794 C 1168.4782608695652 794, 1203.5217391304348 873, 1217 873 C 1230.0434782608695 873, 1263.9565217391305 770, 1277 770 C 1290.695652173913 770, 1326.304347826087 906, 1340 906 C 1355.6521739130435 906, 1396.3478260869565 766, 1412 766 C 1422.4347826086957 766, 1449.5652173913043 876, 1460 876 C 1473.9130434782608 876, 1510.0869565217392 786, 1524 786 C 1541.391304347826 786, 1586.608695652174 900, 1604 900 C 1615.0869565217392 900, 1643.9130434782608 781, 1655 781 C 1672.1739130434783 781, 1716.8260869565217 768, 1734 768 C 1744.2173913043478 768, 1770.7826086956522 884, 1781 884 C 1798.608695652174 884, 1844.391304347826 785, 1862 785 C 1879.391304347826 785, 1924.608695652174 890, 1942 890 C 1952.8695652173913 890, 1981.1304347826087 789, 1992 789 C 2011.3478260869565 789, 2061.6521739130435 772, 2081 772 C 2095.782608695652 772, 2134.217391304348 775, 2149 775 C 2167.913043478261 775, 2217.086956521739 883, 2236 883 C 2247.9565217391305 883, 2279.0434782608695 765, 2291 765 C 2306.4347826086955 765, 2346.5652173913045 893, 2362 893 C 2373.7391304347825 893, 2404.2608695652175 890, 2416 890 C 2428.8260869565215 890, 2462.1739130434785 879, 2475 879 C 2490.217391304348 879, 2529.782608695652 795, 2545 795 C 2558.2608695652175 795, 2592.7391304347825 790, 2606 790 L 2680 836 L 2680 1441 Z"></path><path fill="#41375f" stroke="#41375f" d="M -120 1441 L -200 880 C -184.34782608695653 880, -143.65217391304347 917, -128 917 C -115.3913043478261 917, -82.6086956521739 835, -70 835 C -57.391304347826086 835, -24.608695652173914 835, -12 835 C 1.0434782608695645 835, 34.95652173913044 923, 48 923 C 63.869565217391305 923, 105.1304347826087 945, 121 945 C 139.91304347826087 945, 189.08695652173913 942, 208 942 C 218.65217391304347 942, 246.34782608695653 831, 257 831 C 270.04347826086956 831, 303.95652173913044 928, 317 928 C 333.95652173913044 928, 378.04347826086956 932, 395 932 C 415 932, 467 821, 487 821 C 498.7391304347826 821, 529.2608695652174 953, 541 953 C 559.2608695652174 953, 606.7391304347826 952, 625 952 C 635.8695652173913 952, 664.1304347826087 810, 675 810 C 685.6521739130435 810, 713.3478260869565 946, 724 946 C 740.0869565217391 946, 781.9130434782609 945, 798 945 C 815.8260869565217 945, 862.1739130434783 820, 880 820 C 893.4782608695652 820, 928.5217391304348 819, 942 819 C 955.9130434782609 819, 992.0869565217391 842, 1006 842 C 1019.2608695652174 842, 1053.7391304347825 940, 1067 940 C 1077.8695652173913 940, 1106.1304347826087 925, 1117 925 C 1129.608695652174 925, 1162.391304347826 813, 1175 813 C 1190.4347826086957 813, 1230.5652173913043 932, 1246 932 C 1264.4782608695652 932, 1312.5217391304348 936, 1331 936 C 1342.304347826087 936, 1371.695652173913 928, 1383 928 C 1398.4347826086957 928, 1438.5652173913043 809, 1454 809 C 1473.3478260869565 809, 1523.6521739130435 823, 1543 823 C 1562.3478260869565 823, 1612.6521739130435 821, 1632 821 C 1650.2608695652175 821, 1697.7391304347825 820, 1716 820 C 1736.2173913043478 820, 1788.7826086956522 924, 1809 924 C 1819.8695652173913 924, 1848.1304347826087 950, 1859 950 C 1873.7826086956522 950, 1912.2173913043478 945, 1927 945 C 1938.304347826087 945, 1967.695652173913 835, 1979 835 C 1995.5217391304348 835, 2038.4782608695652 837, 2055 837 C 2071.9565217391305 837, 2116.0434782608695 939, 2133 939 C 2151.695652173913 939, 2200.304347826087 920, 2219 920 C 2234.4347826086955 920, 2274.5652173913045 951, 2290 951 C 2310 951, 2362 830, 2382 830 C 2392.8695652173915 830, 2421.1304347826085 824, 2432 824 C 2444.391304347826 824, 2476.608695652174 921, 2489 921 C 2507.0434782608695 921, 2553.9565217391305 835, 2572 835 L 2680 880 L 2680 1441 Z"></path><path fill="#3b3358" stroke="#3b3358" d="M -120 1441 L -204 924 C -187.2608695652174 924, -143.7391304347826 885, -127 885 C -114.17391304347827 885, -80.82608695652173 868, -68 868 C -51.913043478260875 868, -10.086956521739129 993, 6 993 C 21.652173913043477 993, 62.34782608695652 879, 78 879 C 93.21739130434783 879, 132.7826086956522 856, 148 856 C 160.6086956521739 856, 193.3913043478261 980, 206 980 C 218.17391304347825 980, 249.82608695652175 971, 262 971 C 277.6521739130435 971, 318.3478260869565 964, 334 964 C 347.2608695652174 964, 381.7391304347826 886, 395 886 C 411.95652173913044 886, 456.04347826086956 877, 473 877 C 492.5652173913044 877, 543.4347826086956 878, 563 878 C 580.3913043478261 878, 625.6086956521739 979, 643 979 C 653.6521739130435 979, 681.3478260869565 971, 692 971 C 710.2608695652174 971, 757.7391304347826 851, 776 851 C 790.1304347826087 851, 826.8695652173913 982, 841 982 C 859.4782608695652 982, 907.5217391304348 882, 926 882 C 940.7826086956521 882, 979.2173913043479 961, 994 961 C 1012.4782608695652 961, 1060.5217391304348 867, 1079 867 C 1089.4347826086957 867, 1116.5652173913043 885, 1127 885 C 1140.2608695652175 885, 1174.7391304347825 886, 1188 886 C 1208 886, 1260 861, 1280 861 C 1292.608695652174 861, 1325.391304347826 879, 1338 879 C 1349.0869565217392 879, 1377.9130434782608 983, 1389 983 C 1403.7826086956522 983, 1442.2173913043478 985, 1457 985 C 1470.695652173913 985, 1506.304347826087 872, 1520 872 C 1533.9130434782608 872, 1570.0869565217392 867, 1584 867 C 1603.1304347826087 867, 1652.8695652173913 975, 1672 975 C 1686.5652173913043 975, 1724.4347826086957 962, 1739 962 C 1751.1739130434783 962, 1782.8260869565217 875, 1795 875 C 1806.304347826087 875, 1835.695652173913 862, 1847 862 C 1862.8695652173913 862, 1904.1304347826087 853, 1920 853 C 1936.5217391304348 853, 1979.4782608695652 980, 1996 980 C 2015.7826086956522 980, 2067.217391304348 883, 2087 883 C 2098.304347826087 883, 2127.695652173913 864, 2139 864 C 2158.1304347826085 864, 2207.8695652173915 865, 2227 865 C 2243.086956521739 865, 2284.913043478261 877, 2301 877 C 2315.1304347826085 877, 2351.8695652173915 852, 2366 852 C 2385.3478260869565 852, 2435.6521739130435 859, 2455 859 C 2468.913043478261 859, 2505.086956521739 985, 2519 985 C 2534.6521739130435 985, 2575.3478260869565 988, 2591 988 L 2680 924 L 2680 1441 Z"></path><path fill="#362e52" stroke="#362e52" d="M -120 1441 L -208 968 C -191.47826086956522 968, -148.52173913043478 896, -132 896 C -113.95652173913044 896, -67.04347826086956 1031, -49 1031 C -34.869565217391305 1031, 1.8695652173913064 1014, 16 1014 C 35.347826086956516 1014, 85.65217391304348 920, 105 920 C 117.17391304347827 920, 148.82608695652175 915, 161 915 C 177.08695652173913 915, 218.91304347826087 924, 235 924 C 253.04347826086956 924, 299.95652173913044 895, 318 895 C 333.2173913043478 895, 372.7826086956522 1031, 388 1031 C 398.8695652173913 1031, 427.1304347826087 1039, 438 1039 C 452.7826086956522 1039, 491.2173913043478 1032, 506 1032 C 523.8260869565217 1032, 570.1739130434783 898, 588 898 C 603.8695652173913 898, 645.1304347826087 1024, 661 1024 C 671.8695652173913 1024, 700.1304347826087 900, 711 900 C 725.5652173913044 900, 763.4347826086956 1032, 778 1032 C 791.4782608695652 1032, 826.5217391304348 1009, 840 1009 C 851.9565217391304 1009, 883.0434782608696 1025, 895 1025 C 905.4347826086956 1025, 932.5652173913044 1010, 943 1010 C 957.5652173913044 1010, 995.4347826086956 1029, 1010 1029 C 1028.9130434782608 1029, 1078.0869565217392 1019, 1097 1019 C 1116.5652173913043 1019, 1167.4347826086957 1011, 1187 1011 C 1199.608695652174 1011, 1232.391304347826 908, 1245 908 C 1263.4782608695652 908, 1311.5217391304348 1041, 1330 1041 C 1343.9130434782608 1041, 1380.0869565217392 1034, 1394 1034 C 1405.0869565217392 1034, 1433.9130434782608 901, 1445 901 C 1462.391304347826 901, 1507.608695652174 913, 1525 913 C 1536.9565217391305 913, 1568.0434782608695 897, 1580 897 C 1591.9565217391305 897, 1623.0434782608695 1037, 1635 1037 C 1648.695652173913 1037, 1684.304347826087 910, 1698 910 C 1714.304347826087 910, 1756.695652173913 929, 1773 929 C 1784.0869565217392 929, 1812.9130434782608 896, 1824 896 C 1835.0869565217392 896, 1863.9130434782608 899, 1875 899 C 1886.5217391304348 899, 1916.4782608695652 1012, 1928 1012 C 1942.3478260869565 1012, 1979.6521739130435 926, 1994 926 C 2008.1304347826087 926, 2044.8695652173913 1019, 2059 1019 C 2069.8695652173915 1019, 2098.1304347826085 1016, 2109 1016 C 2124.217391304348 1016, 2163.782608695652 920, 2179 920 C 2196.8260869565215 920, 2243.1739130434785 931, 2261 931 C 2277.304347826087 931, 2319.695652173913 906, 2336 906 C 2346.4347826086955 906, 2373.5652173913045 922, 2384 922 C 2400.304347826087 922, 2442.695652173913 1034, 2459 1034 C 2475.521739130435 1034, 2518.478260869565 931, 2535 931 C 2555 931, 2607 898, 2627 898 L 2680 968 L 2680 1441 Z"></path><path fill="#302a4b" stroke="#302a4b" d="M -120 1441 L -212 1012 C -193.08695652173913 1012, -143.91304347826087 1063, -125 1063 C -108.26086956521739 1063, -64.73913043478261 1058, -48 1058 C -33.869565217391305 1058, 2.8695652173913064 968, 17 968 C 32.21739130434783 968, 71.78260869565217 1085, 87 1085 C 102.43478260869566 1085, 142.56521739130434 1052, 158 1052 C 170.6086956521739 1052, 203.3913043478261 961, 216 961 C 236 961, 288 956, 308 956 C 326.04347826086956 956, 372.95652173913044 955, 391 955 C 404.4782608695652 955, 439.5217391304348 965, 453 965 C 472.7826086956522 965, 524.2173913043479 974, 544 974 C 561.6086956521739 974, 607.3913043478261 973, 625 973 C 635.8695652173913 973, 664.1304347826087 1084, 675 1084 C 686.7391304347826 1084, 717.2608695652174 1053, 729 1053 C 746.3913043478261 1053, 791.6086956521739 964, 809 964 C 820.5217391304348 964, 850.4782608695652 1054, 862 1054 C 876.3478260869565 1054, 913.6521739130435 962, 928 962 C 940.6086956521739 962, 973.3913043478261 1057, 986 1057 C 998.1739130434783 1057, 1029.8260869565217 944, 1042 944 C 1053.9565217391305 944, 1085.0434782608695 970, 1097 970 C 1111.7826086956522 970, 1150.2173913043478 975, 1165 975 C 1183.695652173913 975, 1232.304347826087 1081, 1251 1081 C 1265.5652173913043 1081, 1303.4347826086957 1081, 1318 1081 C 1338.2173913043478 1081, 1390.7826086956522 962, 1411 962 C 1428.1739130434783 962, 1472.8260869565217 961, 1490 961 C 1507.608695652174 961, 1553.391304347826 1067, 1571 1067 C 1581.6521739130435 1067, 1609.3478260869565 956, 1620 956 C 1638.0434782608695 956, 1684.9565217391305 963, 1703 963 C 1715.8260869565217 963, 1749.1739130434783 1070, 1762 1070 C 1774.8260869565217 1070, 1808.1739130434783 947, 1821 947 C 1836.4347826086957 947, 1876.5652173913043 975, 1892 975 C 1910.2608695652175 975, 1957.7391304347825 1068, 1976 1068 C 1992.7391304347825 1068, 2036.2608695652175 941, 2053 941 C 2072.782608695652 941, 2124.217391304348 1081, 2144 1081 C 2159.6521739130435 1081, 2200.3478260869565 1081, 2216 1081 C 2236 1081, 2288 954, 2308 954 C 2320.1739130434785 954, 2351.8260869565215 942, 2364 942 C 2377.913043478261 942, 2414.086956521739 1066, 2428 1066 C 2444.7391304347825 1066, 2488.2608695652175 944, 2505 944 C 2519.3478260869565 944, 2556.6521739130435 966, 2571 966 L 2680 1012 L 2680 1441 Z"></path><path fill="#2b2545" stroke="#2b2545" d="M -120 1441 L -216 1056 C -197.73913043478262 1056, -150.26086956521738 1112, -132 1112 C -116.78260869565217 1112, -77.21739130434783 1011, -62 1011 C -42.434782608695656 1011, 8.434782608695656 1101, 28 1101 C 45.17391304347826 1101, 89.82608695652175 1010, 107 1010 C 118.52173913043478 1010, 148.47826086956522 988, 160 988 C 173.69565217391303 988, 209.30434782608697 1112, 223 1112 C 234.95652173913044 1112, 266.04347826086956 1095, 278 1095 C 296.69565217391306 1095, 345.30434782608694 987, 364 987 C 382.04347826086956 987, 428.95652173913044 1000, 447 1000 C 462 1000, 501 991, 516 991 C 529.2608695652174 991, 563.7391304347826 985, 577 985 C 591.3478260869565 985, 628.6521739130435 1010, 643 1010 C 659.5217391304348 1010, 702.4782608695652 989, 719 989 C 732.695652173913 989, 768.304347826087 999, 782 999 C 801.1304347826087 999, 850.8695652173913 1120, 870 1120 C 887.1739130434783 1120, 931.8260869565217 1013, 949 1013 C 962.695652173913 1013, 998.304347826087 989, 1012 989 C 1026.5652173913043 989, 1064.4347826086957 1126, 1079 1126 C 1096.1739130434783 1126, 1140.8260869565217 1109, 1158 1109 C 1174.0869565217392 1109, 1215.9130434782608 1120, 1232 1120 C 1245.0434782608695 1120, 1278.9565217391305 998, 1292 998 C 1307.8695652173913 998, 1349.1304347826087 1101, 1365 1101 C 1377.8260869565217 1101, 1411.1739130434783 986, 1424 986 C 1439.6521739130435 986, 1480.3478260869565 1012, 1496 1012 C 1513.608695652174 1012, 1559.391304347826 1094, 1577 1094 C 1592.8695652173913 1094, 1634.1304347826087 984, 1650 984 C 1664.1304347826087 984, 1700.8695652173913 1011, 1715 1011 C 1725.4347826086957 1011, 1752.5652173913043 998, 1763 998 C 1774.304347826087 998, 1803.695652173913 1104, 1815 1104 C 1825.2173913043478 1104, 1851.7826086956522 1105, 1862 1105 C 1880.9130434782608 1105, 1930.0869565217392 1104, 1949 1104 C 1965.7391304347825 1104, 2009.2608695652175 1109, 2026 1109 C 2037.304347826087 1109, 2066.695652173913 1009, 2078 1009 C 2093 1009, 2132 1013, 2147 1013 C 2162 1013, 2201 987, 2216 987 C 2232.086956521739 987, 2273.913043478261 1110, 2290 1110 C 2306.7391304347825 1110, 2350.2608695652175 1109, 2367 1109 C 2385.0434782608695 1109, 2431.9565217391305 1099, 2450 1099 C 2460.6521739130435 1099, 2488.3478260869565 1117, 2499 1117 C 2515.521739130435 1117, 2558.478260869565 1093, 2575 1093 L 2680 1056 L 2680 1441 Z"></path><path fill="#25213e" stroke="#25213e" d="M -120 1441 L -220 1100 C -202.17391304347825 1100, -155.82608695652175 1170, -138 1170 C -123 1170, -84 1162, -69 1162 C -48.78260869565217 1162, 3.7826086956521756 1051, 24 1051 C 37.91304347826087 1051, 74.08695652173913 1053, 88 1053 C 107.34782608695652 1053, 157.65217391304347 1145, 177 1145 C 194.17391304347825 1145, 238.82608695652175 1046, 256 1046 C 273.17391304347825 1046, 317.82608695652175 1055, 335 1055 C 346.0869565217391 1055, 374.9130434782609 1047, 386 1047 C 399.04347826086956 1047, 432.95652173913044 1158, 446 1158 C 461.2173913043478 1158, 500.7826086956522 1028, 516 1028 C 536.2173913043479 1028, 588.7826086956521 1173, 609 1173 C 623.5652173913044 1173, 661.4347826086956 1035, 676 1035 C 694.695652173913 1035, 743.304347826087 1162, 762 1162 C 781.1304347826087 1162, 830.8695652173913 1152, 850 1152 C 866.304347826087 1152, 908.695652173913 1040, 925 1040 C 942.1739130434783 1040, 986.8260869565217 1161, 1004 1161 C 1020.0869565217391 1161, 1061.9130434782608 1036, 1078 1036 C 1095.1739130434783 1036, 1139.8260869565217 1168, 1157 1168 C 1169.1739130434783 1168, 1200.8260869565217 1048, 1213 1048 C 1226.4782608695652 1048, 1261.5217391304348 1062, 1275 1062 C 1289.3478260869565 1062, 1326.6521739130435 1156, 1341 1156 C 1351.4347826086957 1156, 1378.5652173913043 1142, 1389 1142 C 1403.7826086956522 1142, 1442.2173913043478 1063, 1457 1063 C 1467.6521739130435 1063, 1495.3478260869565 1046, 1506 1046 C 1523.608695652174 1046, 1569.391304347826 1058, 1587 1058 C 1606.5652173913043 1058, 1657.4347826086957 1161, 1677 1161 C 1689.8260869565217 1161, 1723.1739130434783 1055, 1736 1055 C 1751.6521739130435 1055, 1792.3478260869565 1140, 1808 1140 C 1823.4347826086957 1140, 1863.5652173913043 1027, 1879 1027 C 1896.391304347826 1027, 1941.608695652174 1063, 1959 1063 C 1975.304347826087 1063, 2017.695652173913 1060, 2034 1060 C 2049.6521739130435 1060, 2090.3478260869565 1159, 2106 1159 C 2119.0434782608695 1159, 2152.9565217391305 1060, 2166 1060 C 2179.695652173913 1060, 2215.304347826087 1147, 2229 1147 C 2244 1147, 2283 1157, 2298 1157 C 2313.217391304348 1157, 2352.782608695652 1056, 2368 1056 C 2385.8260869565215 1056, 2432.1739130434785 1041, 2450 1041 C 2470.4347826086955 1041, 2523.5652173913045 1045, 2544 1045 C 2563.3478260869565 1045, 2613.6521739130435 1164, 2633 1164 L 2680 1100 L 2680 1441 Z"></path><path fill="#201d38" stroke="#201d38" d="M -120 1441 L -224 1144 C -209.65217391304347 1144, -172.34782608695653 1208, -158 1208 C -146.2608695652174 1208, -115.73913043478261 1097, -104 1097 C -85.95652173913044 1097, -39.04347826086956 1187, -21 1187 C -6.65217391304348 1187, 30.65217391304348 1078, 45 1078 C 64.78260869565217 1078, 116.21739130434783 1101, 136 1101 C 153.17391304347825 1101, 197.82608695652175 1186, 215 1186 C 234.56521739130434 1186, 285.4347826086956 1094, 305 1094 C 315.2173913043478 1094, 341.7826086956522 1199, 352 1199 C 363.95652173913044 1199, 395.04347826086956 1200, 407 1200 C 424.82608695652175 1200, 471.17391304347825 1196, 489 1196 C 502.9130434782609 1196, 539.0869565217391 1210, 553 1210 C 571.4782608695652 1210, 619.5217391304348 1107, 638 1107 C 651.9130434782609 1107, 688.0869565217391 1097, 702 1097 C 720.695652173913 1097, 769.304347826087 1216, 788 1216 C 803.6521739130435 1216, 844.3478260869565 1073, 860 1073 C 878.9130434782609 1073, 928.0869565217391 1199, 947 1199 C 962.6521739130435 1199, 1003.3478260869565 1189, 1019 1189 C 1036.391304347826 1189, 1081.608695652174 1189, 1099 1189 C 1114.8695652173913 1189, 1156.1304347826087 1187, 1172 1187 C 1188.9565217391305 1187, 1233.0434782608695 1082, 1250 1082 C 1266.304347826087 1082, 1308.695652173913 1194, 1325 1194 C 1342.1739130434783 1194, 1386.8260869565217 1199, 1404 1199 C 1417.2608695652175 1199, 1451.7391304347825 1082, 1465 1082 C 1480.4347826086957 1082, 1520.5652173913043 1192, 1536 1192 C 1552.5217391304348 1192, 1595.4782608695652 1203, 1612 1203 C 1628.0869565217392 1203, 1669.9130434782608 1191, 1686 1191 C 1699.0434782608695 1191, 1732.9565217391305 1072, 1746 1072 C 1763.391304347826 1072, 1808.608695652174 1087, 1826 1087 C 1840.7826086956522 1087, 1879.2173913043478 1076, 1894 1076 C 1904.4347826086957 1076, 1931.5652173913043 1100, 1942 1100 C 1961.7826086956522 1100, 2013.2173913043478 1200, 2033 1200 C 2047.5652173913043 1200, 2085.4347826086955 1182, 2100 1182 C 2111.304347826087 1182, 2140.695652173913 1091, 2152 1091 C 2164.1739130434785 1091, 2195.8260869565215 1217, 2208 1217 C 2228.217391304348 1217, 2280.782608695652 1200, 2301 1200 C 2312.7391304347825 1200, 2343.2608695652175 1097, 2355 1097 C 2370.8695652173915 1097, 2412.1304347826085 1088, 2428 1088 C 2439.086956521739 1088, 2467.913043478261 1088, 2479 1088 C 2494.4347826086955 1088, 2534.5652173913045 1184, 2550 1184 C 2566.086956521739 1184, 2607.913043478261 1082, 2624 1082 L 2680 1144 L 2680 1441 Z"></path><path fill="#1b1932" stroke="#1b1932" d="M -120 1441 L -228 1188 C -207.56521739130434 1188, -154.43478260869566 1119, -134 1119 C -120.30434782608695 1119, -84.69565217391305 1129, -71 1129 C -56 1129, -17 1126, -2 1126 C 13.652173913043477 1126, 54.34782608695652 1125, 70 1125 C 84.34782608695652 1125, 121.65217391304348 1234, 136 1234 C 153.17391304347825 1234, 197.82608695652175 1125, 215 1125 C 228.69565217391303 1125, 264.30434782608694 1148, 278 1148 C 295.39130434782606 1148, 340.60869565217394 1131, 358 1131 C 375.39130434782606 1131, 420.60869565217394 1140, 438 1140 C 458.4347826086956 1140, 511.5652173913044 1122, 532 1122 C 552.2173913043479 1122, 604.7826086956521 1252, 625 1252 C 635.8695652173913 1252, 664.1304347826087 1244, 675 1244 C 687.8260869565217 1244, 721.1739130434783 1135, 734 1135 C 751.1739130434783 1135, 795.8260869565217 1120, 813 1120 C 828.8695652173913 1120, 870.1304347826087 1226, 886 1226 C 901 1226, 940 1234, 955 1234 C 969.1304347826087 1234, 1005.8695652173913 1232, 1020 1232 C 1038.4782608695652 1232, 1086.5217391304348 1150, 1105 1150 C 1118.2608695652175 1150, 1152.7391304347825 1232, 1166 1232 C 1184.4782608695652 1232, 1232.5217391304348 1239, 1251 1239 C 1267.7391304347825 1239, 1311.2608695652175 1227, 1328 1227 C 1348.4347826086957 1227, 1401.5652173913043 1258, 1422 1258 C 1439.391304347826 1258, 1484.608695652174 1260, 1502 1260 C 1517.2173913043478 1260, 1556.7826086956522 1228, 1572 1228 C 1582.4347826086957 1228, 1609.5652173913043 1145, 1620 1145 C 1633.0434782608695 1145, 1666.9565217391305 1257, 1680 1257 C 1697.391304347826 1257, 1742.608695652174 1138, 1760 1138 C 1777.1739130434783 1138, 1821.8260869565217 1240, 1839 1240 C 1853.5652173913043 1240, 1891.4347826086957 1228, 1906 1228 C 1922.5217391304348 1228, 1965.4782608695652 1233, 1982 1233 C 2001.5652173913043 1233, 2052.4347826086955 1132, 2072 1132 C 2089.8260869565215 1132, 2136.1739130434785 1239, 2154 1239 C 2171.8260869565215 1239, 2218.1739130434785 1122, 2236 1122 C 2247.304347826087 1122, 2276.695652173913 1245, 2288 1245 C 2305.1739130434785 1245, 2349.8260869565215 1247, 2367 1247 C 2382 1247, 2421 1144, 2436 1144 C 2453.391304347826 1144, 2498.608695652174 1151, 2516 1151 C 2531 1151, 2570 1255, 2585 1255 L 2680 1188 L 2680 1441 Z"></path><path fill="#16142c" stroke="#16142c" d="M -120 1441 L -232 1232 C -211.56521739130434 1232, -158.43478260869566 1159, -138 1159 C -123.43478260869566 1159, -85.56521739130434 1298, -71 1298 C -58.82608695652174 1298, -27.173913043478258 1159, -15 1159 C -0.6521739130434803 1159, 36.652173913043484 1173, 51 1173 C 64.69565217391305 1173, 100.30434782608695 1176, 114 1176 C 129.2173913043478 1176, 168.7826086956522 1303, 184 1303 C 195.95652173913044 1303, 227.04347826086956 1292, 239 1292 C 254.43478260869566 1292, 294.5652173913044 1303, 310 1303 C 321.0869565217391 1303, 349.9130434782609 1167, 361 1167 C 376 1167, 415 1270, 430 1270 C 447.17391304347825 1270, 491.82608695652175 1179, 509 1179 C 519.4347826086956 1179, 546.5652173913044 1286, 557 1286 C 572.2173913043479 1286, 611.7826086956521 1271, 627 1271 C 640.4782608695652 1271, 675.5217391304348 1192, 689 1192 C 709.2173913043479 1192, 761.7826086956521 1293, 782 1293 C 793.7391304347826 1293, 824.2608695652174 1180, 836 1180 C 846.2173913043479 1180, 872.7826086956521 1186, 883 1186 C 899.9565217391304 1186, 944.0434782608696 1178, 961 1178 C 974.9130434782609 1178, 1011.0869565217391 1296, 1025 1296 C 1043.2608695652175 1296, 1090.7391304347825 1194, 1109 1194 C 1123.7826086956522 1194, 1162.2173913043478 1167, 1177 1167 C 1191.7826086956522 1167, 1230.2173913043478 1299, 1245 1299 C 1260.4347826086957 1299, 1300.5652173913043 1276, 1316 1276 C 1331.8695652173913 1276, 1373.1304347826087 1160, 1389 1160 C 1401.1739130434783 1160, 1432.8260869565217 1276, 1445 1276 C 1456.7391304347825 1276, 1487.2608695652175 1186, 1499 1186 C 1519 1186, 1571 1183, 1591 1183 C 1603.8260869565217 1183, 1637.1739130434783 1182, 1650 1182 C 1668.0434782608695 1182, 1714.9565217391305 1275, 1733 1275 C 1749.9565217391305 1275, 1794.0434782608695 1276, 1811 1276 C 1822.5217391304348 1276, 1852.4782608695652 1165, 1864 1165 C 1877.4782608695652 1165, 1912.5217391304348 1301, 1926 1301 C 1945.3478260869565 1301, 1995.6521739130435 1178, 2015 1178 C 2033.2608695652175 1178, 2080.7391304347825 1288, 2099 1288 C 2115.9565217391305 1288, 2160.0434782608695 1169, 2177 1169 C 2192.8695652173915 1169, 2234.1304347826085 1278, 2250 1278 C 2265.217391304348 1278, 2304.782608695652 1276, 2320 1276 C 2334.5652173913045 1276, 2372.4347826086955 1176, 2387 1176 C 2403.7391304347825 1176, 2447.2608695652175 1298, 2464 1298 C 2482.2608695652175 1298, 2529.7391304347825 1294, 2548 1294 C 2565.8260869565215 1294, 2612.1739130434785 1298, 2630 1298 L 2680 1232 L 2680 1441 Z"></path><path fill="#120f26" stroke="#120f26" d="M -120 1441 L -236 1276 C -221.43478260869566 1276, -183.56521739130434 1218, -169 1218 C -154.43478260869566 1218, -116.56521739130434 1227, -102 1227 C -82.21739130434783 1227, -30.782608695652172 1220, -11 1220 C 4.4347826086956506 1220, 44.56521739130435 1226, 60 1226 C 72.6086956521739 1226, 105.3913043478261 1317, 118 1317 C 134.08695652173913 1317, 175.91304347826087 1321, 192 1321 C 210.91304347826087 1321, 260.0869565217391 1337, 279 1337 C 290.0869565217391 1337, 318.9130434782609 1233, 330 1233 C 345.4347826086956 1233, 385.5652173913044 1324, 401 1324 C 411.8695652173913 1324, 440.1304347826087 1344, 451 1344 C 464.04347826086956 1344, 497.95652173913044 1213, 511 1213 C 525.5652173913044 1213, 563.4347826086956 1213, 578 1213 C 591.2608695652174 1213, 625.7391304347826 1220, 639 1220 C 655.7391304347826 1220, 699.2608695652174 1234, 716 1234 C 734.695652173913 1234, 783.304347826087 1216, 802 1216 C 819.8260869565217 1216, 866.1739130434783 1204, 884 1204 C 900.5217391304348 1204, 943.4782608695652 1218, 960 1218 C 973.0434782608696 1218, 1006.9565217391304 1348, 1020 1348 C 1033.9130434782608 1348, 1070.0869565217392 1211, 1084 1211 C 1103.5652173913043 1211, 1154.4347826086957 1340, 1174 1340 C 1184.6521739130435 1340, 1212.3478260869565 1211, 1223 1211 C 1242.7826086956522 1211, 1294.2173913043478 1335, 1314 1335 C 1325.9565217391305 1335, 1357.0434782608695 1339, 1369 1339 C 1382.2608695652175 1339, 1416.7391304347825 1332, 1430 1332 C 1444.7826086956522 1332, 1483.2173913043478 1329, 1498 1329 C 1513.2173913043478 1329, 1552.7826086956522 1318, 1568 1318 C 1585.8260869565217 1318, 1632.1739130434783 1319, 1650 1319 C 1660.4347826086957 1319, 1687.5652173913043 1327, 1698 1327 C 1717.3478260869565 1327, 1767.6521739130435 1343, 1787 1343 C 1801.5652173913043 1343, 1839.4347826086957 1340, 1854 1340 C 1872.2608695652175 1340, 1919.7391304347825 1219, 1938 1219 C 1955.8260869565217 1219, 2002.1739130434783 1337, 2020 1337 C 2032.608695652174 1337, 2065.391304347826 1332, 2078 1332 C 2090.1739130434785 1332, 2121.8260869565215 1321, 2134 1321 C 2145.086956521739 1321, 2173.913043478261 1220, 2185 1220 C 2198.478260869565 1220, 2233.521739130435 1316, 2247 1316 C 2264.391304347826 1316, 2309.608695652174 1215, 2327 1215 C 2347.217391304348 1215, 2399.782608695652 1331, 2420 1331 C 2431.7391304347825 1331, 2462.2608695652175 1220, 2474 1220 C 2492.0434782608695 1220, 2538.9565217391305 1212, 2557 1212 C 2568.9565217391305 1212, 2600.0434782608695 1342, 2612 1342 L 2680 1276 L 2680 1441 Z"></path><path fill="#0d0820" stroke="#0d0820" d="M -120 1441 L -240 1321 C -224.1304347826087 1321, -182.8695652173913 1281, -167 1281 C -150.91304347826087 1281, -109.08695652173913 1257, -93 1257 C -79.08695652173913 1257, -42.91304347826087 1272, -29 1272 C -14.869565217391306 1272, 21.869565217391305 1370, 36 1370 C 50.347826086956516 1370, 87.65217391304348 1263, 102 1263 C 118.30434782608695 1263, 160.69565217391306 1392, 177 1392 C 187.2173913043478 1392, 213.7826086956522 1369, 224 1369 C 243.1304347826087 1369, 292.8695652173913 1360, 312 1360 C 326.7826086956522 1360, 365.2173913043478 1257, 380 1257 C 397.82608695652175 1257, 444.17391304347825 1263, 462 1263 C 482 1263, 534 1282, 554 1282 C 565.304347826087 1282, 594.695652173913 1378, 606 1378 C 620.7826086956521 1378, 659.2173913043479 1276, 674 1276 C 693.3478260869565 1276, 743.6521739130435 1375, 763 1375 C 775.8260869565217 1375, 809.1739130434783 1390, 822 1390 C 833.0869565217391 1390, 861.9130434782609 1253, 873 1253 C 893 1253, 945 1249, 965 1249 C 985 1249, 1037 1262, 1057 1262 C 1068.7391304347825 1262, 1099.2608695652175 1280, 1111 1280 C 1125.5652173913043 1280, 1163.4347826086957 1361, 1178 1361 C 1190.8260869565217 1361, 1224.1739130434783 1359, 1237 1359 C 1252 1359, 1291 1261, 1306 1261 C 1323.8260869565217 1261, 1370.1739130434783 1250, 1388 1250 C 1403.2173913043478 1250, 1442.7826086956522 1248, 1458 1248 C 1469.0869565217392 1248, 1497.9130434782608 1267, 1509 1267 C 1525.7391304347825 1267, 1569.2608695652175 1265, 1586 1265 C 1600.7826086956522 1265, 1639.2173913043478 1389, 1654 1389 C 1666.1739130434783 1389, 1697.8260869565217 1274, 1710 1274 C 1724.1304347826087 1274, 1760.8695652173913 1272, 1775 1272 C 1785.8695652173913 1272, 1814.1304347826087 1281, 1825 1281 C 1845 1281, 1897 1364, 1917 1364 C 1927.8695652173913 1364, 1956.1304347826087 1362, 1967 1362 C 1981.7826086956522 1362, 2020.2173913043478 1265, 2035 1265 C 2051.7391304347825 1265, 2095.2608695652175 1380, 2112 1380 C 2124.391304347826 1380, 2156.608695652174 1370, 2169 1370 C 2187.0434782608695 1370, 2233.9565217391305 1393, 2252 1393 C 2268.521739130435 1393, 2311.478260869565 1373, 2328 1373 C 2347.782608695652 1373, 2399.217391304348 1362, 2419 1362 C 2430.521739130435 1362, 2460.478260869565 1385, 2472 1385 C 2492.217391304348 1385, 2544.782608695652 1262, 2565 1262 L 2680 1321 L 2680 1441 Z"></path></svg>